<svg xmlns="http://www.w3.org/2000/svg" width="512" height="512" viewBox="0 0 512 512" version="1.1">
	<path d="M 391 36.887 C 382.368 39.687, 374.032 46.862, 369.955 55 C 367.211 60.476, 366.261 71.009, 367.917 77.586 C 368.975 81.786, 368.898 82.486, 367.165 84.384 C 366.103 85.548, 364.495 87.963, 363.591 89.750 C 362.688 91.537, 361.294 93, 360.494 93 C 359.694 93, 356.668 91.485, 353.769 89.633 C 332.837 76.256, 303.397 65.904, 277.834 62.932 C 263.303 61.243, 233.365 62.280, 220.558 64.917 C 171.800 74.956, 131.117 101.780, 103.169 142.317 C 95.335 153.679, 84.119 176.350, 80.073 189 C 59.171 254.355, 74.863 324.232, 121.600 373.913 L 129.156 381.945 105.473 427.478 C 91.905 453.565, 82.035 473.650, 82.364 474.506 C 82.679 475.328, 83.538 476, 84.271 476 C 85.005 476, 103.461 460.925, 125.285 442.500 C 147.108 424.075, 165.364 409, 165.853 409 C 166.343 409, 171.419 411.234, 177.135 413.964 C 226.855 437.715, 285.810 437.507, 336 413.406 C 393.695 385.700, 432.940 329.965, 439.941 265.789 C 445.632 213.615, 426.998 157.872, 391.519 120.935 C 385.365 114.528, 384.986 112.416, 389.551 109.973 C 390.935 109.232, 393.013 107.098, 394.166 105.231 C 395.576 102.951, 396.833 101.984, 397.994 102.288 C 400.877 103.042, 410.944 101.069, 415.142 98.928 C 435.150 88.720, 439.579 61.527, 423.804 45.751 C 417.204 39.151, 411.101 36.565, 401.500 36.298 C 397.100 36.176, 392.375 36.441, 391 36.887 M 390.005 41.683 C 383.249 44.158, 374.591 53.270, 372.589 60.013 C 370.456 67.194, 370.588 72.824, 373.044 79.387 C 377.081 90.177, 386.565 96.994, 398.639 97.782 C 404.723 98.180, 406.569 97.885, 411.139 95.784 C 418.762 92.280, 422.442 88.803, 425.942 81.800 C 433.249 67.178, 427.531 50.440, 412.616 42.794 C 407.111 39.972, 396.148 39.433, 390.005 41.683 M 391.500 50.835 C 377.729 57.379, 376.061 75.668, 388.343 85.442 C 391.881 88.258, 392.799 88.500, 399.916 88.500 C 408.695 88.500, 412.715 86.549, 417.090 80.163 C 419.127 77.191, 419.500 75.446, 419.500 68.897 C 419.500 60.271, 418.462 58.118, 411.648 52.603 C 406.801 48.680, 397.714 47.882, 391.500 50.835 M 393.379 54.381 C 391.663 55.159, 388.963 57.493, 387.379 59.570 C 384.978 62.718, 384.500 64.299, 384.500 69.099 C 384.500 78.014, 389.884 83.898, 398.829 84.758 C 408.249 85.663, 416 78.442, 416 68.762 C 416 63.849, 413.376 59.073, 408.824 55.702 C 405.421 53.181, 397.520 52.506, 393.379 54.381 M 369.608 87.881 C 367.147 90.600, 367.662 91.846, 371.547 92.575 C 376.262 93.459, 376.751 92.681, 373.733 89.094 C 371.342 86.253, 371.136 86.193, 369.608 87.881 M 360.923 98.923 C 358.515 101.331, 357.145 103.943, 358.250 104.017 C 358.387 104.026, 364.575 104.897, 372 105.952 L 385.500 107.872 388.250 105.249 C 389.762 103.806, 391 102.328, 391 101.965 C 391 100.460, 382.949 97.966, 375.026 97.016 C 363.740 95.663, 364.253 95.594, 360.923 98.923 M 211.150 111 C 209.958 114.420, 208.946 114.666, 205.460 112.382 C 202.300 110.311, 200.327 111.742, 199.379 116.791 C 198.529 121.326, 201.735 127.797, 206.712 131.594 C 211.259 135.062, 212.393 133.854, 210.852 127.181 C 210.196 124.336, 209.941 121.726, 210.286 121.381 C 211.784 119.883, 214.037 122.262, 215.094 126.459 C 216.575 132.339, 219.190 132.646, 220.842 127.134 C 222.934 120.150, 222.350 115.469, 218.896 111.535 C 215.057 107.162, 212.548 106.988, 211.150 111 M 350.923 110.923 C 349.315 112.531, 348 114.284, 348 114.820 C 348 115.699, 352.199 116.467, 370.330 118.903 C 375.912 119.654, 376.283 119.563, 379.080 116.767 C 380.686 115.160, 382 113.285, 382 112.600 C 382 111.757, 377.856 110.811, 369.198 109.677 C 353.097 107.568, 354.365 107.482, 350.923 110.923 M 232.395 118.901 C 228.805 121.090, 225.280 126.350, 224.377 130.865 C 223.587 134.813, 225.032 134.943, 230.169 131.383 C 233.715 128.926, 237 128.704, 237 130.921 C 237 131.461, 234.950 133.314, 232.445 135.038 C 225.617 139.736, 227.855 141.999, 237.846 140.500 C 243.690 139.624, 249 134.672, 249 130.100 C 249 127.219, 248.751 127, 245.469 127 C 241.436 127, 240.463 125.542, 241.928 121.691 C 242.768 119.481, 242.618 118.866, 241.034 118.018 C 238.250 116.528, 235.891 116.769, 232.395 118.901 M 341.455 122.455 C 338.828 125.081, 338.199 127.988, 340.250 128.019 C 340.938 128.030, 346 128.691, 351.500 129.488 C 365.225 131.476, 366.691 131.400, 369.545 128.545 C 373.942 124.149, 373.019 123.464, 360.250 121.659 C 345.071 119.513, 344.367 119.543, 341.455 122.455 M 190.272 130.933 C 187.673 131.595, 184 134.542, 184 135.967 C 184 136.510, 185.125 137.691, 186.500 138.592 C 189.816 140.765, 189.655 142.610, 185.983 144.509 C 183.452 145.818, 183.131 146.377, 183.991 147.983 C 186.984 153.576, 194.415 154.532, 202.153 150.320 C 208.730 146.740, 208.349 144.670, 200.991 144 C 196.999 143.636, 195.500 143.091, 195.500 142 C 195.500 140.875, 196.939 140.425, 201.250 140.200 C 208.252 139.835, 208.766 138.197, 203.063 134.423 C 198.606 131.473, 193.560 130.097, 190.272 130.933 M 331.750 134.518 C 330.238 136.033, 329 137.814, 329 138.476 C 329 139.614, 348.601 143.004, 355.161 143.001 C 357.627 143, 363 138.232, 363 136.045 C 363 135.195, 352.519 133.432, 341.266 132.390 C 334.824 131.794, 334.368 131.896, 331.750 134.518 M 212.655 137.829 C 210.394 140.327, 210.554 145.287, 212.967 147.470 C 219.149 153.065, 228.065 144.149, 222.470 137.967 C 220.197 135.456, 214.871 135.381, 212.655 137.829 M 322.116 146.684 C 320.185 148.615, 319.091 150.454, 319.600 150.914 C 320.095 151.362, 326.560 152.509, 333.966 153.464 L 347.432 155.200 350.216 152.084 C 353.221 148.722, 353.733 147.015, 351.750 146.974 C 351.063 146.960, 344.882 146.120, 338.016 145.108 L 325.533 143.267 322.116 146.684 M 228.402 146.159 C 227.980 146.841, 229.395 148.911, 231.843 151.195 C 238.598 157.496, 236.256 161.066, 229.347 155 C 225.977 152.041, 223 151.085, 223 152.962 C 223 156.088, 227.545 165.281, 230.192 167.508 C 232.705 169.623, 234.118 170.044, 237.885 169.799 C 241.895 169.539, 242.448 169.238, 242.100 167.500 C 241.032 162.168, 241.360 161.512, 245.250 161.190 C 248.638 160.909, 249 160.603, 249 158.016 C 249 152.236, 239.801 145.074, 232.309 145.022 C 230.554 145.010, 228.796 145.521, 228.402 146.159 M 205.839 153.463 C 198.903 158.177, 195.939 169.367, 200.435 173.864 C 201.772 175.200, 202.143 175.180, 203.798 173.683 C 206.707 171.050, 208.838 171.606, 209.806 175.250 C 210.908 179.403, 213.305 179.166, 217.750 174.466 C 220.458 171.603, 221 170.254, 221 166.381 C 221 160.587, 219.096 154, 217.422 154 C 216.728 154, 215.415 156.245, 214.504 158.988 C 212.691 164.447, 211.415 165.815, 209.720 164.120 C 208.912 163.312, 209.059 161.621, 210.266 157.846 C 212.652 150.386, 211.722 149.466, 205.839 153.463 M 312.834 157.872 C 310.697 159.791, 309.859 161.190, 310.500 161.767 C 311.050 162.263, 317.317 163.651, 324.427 164.851 L 337.355 167.034 340.177 164.330 C 345.378 159.347, 344.610 158.793, 330 156.990 C 325.325 156.413, 320.300 155.702, 318.834 155.410 C 316.821 155.008, 315.351 155.612, 312.834 157.872 M 305.310 167.957 C 302.212 169.842, 299.350 173.683, 300.320 174.654 C 300.586 174.919, 306.810 176.023, 314.151 177.107 L 327.500 179.077 330.853 175.441 C 332.697 173.441, 333.822 171.465, 333.353 171.049 C 332.884 170.634, 327.775 169.516, 322 168.565 C 316.225 167.614, 310.823 166.653, 309.997 166.429 C 309.170 166.205, 307.061 166.893, 305.310 167.957 M 292.923 181.923 C 291.315 183.531, 290 185.732, 290 186.815 C 290 188.604, 290.940 188.844, 300.250 189.433 C 305.887 189.790, 312.124 190.317, 314.109 190.605 C 317.192 191.052, 318.182 190.664, 320.902 187.944 C 322.654 186.193, 323.918 184.253, 323.711 183.633 C 323.382 182.647, 304.508 179.277, 298.173 179.075 C 296.860 179.032, 294.572 180.274, 292.923 181.923 M 285.165 195.053 C 281.480 199.009, 282.329 199.653, 292.154 200.350 C 308.692 201.524, 310.737 201.331, 312.648 198.415 C 314.761 195.189, 313.420 194.041, 307.500 194.009 C 305.300 193.998, 299.862 193.705, 295.415 193.359 C 287.830 192.768, 287.197 192.873, 285.165 195.053 M 247.632 214.126 C 231.205 220.053, 217.548 225.118, 217.284 225.382 C 216.939 225.728, 235.684 260.367, 237.529 262.793 C 237.652 262.954, 245.768 253.729, 255.565 242.293 C 265.362 230.857, 275.756 218.764, 278.662 215.420 L 283.946 209.340 280.723 206.345 L 277.500 203.350 247.632 214.126 M 290.469 209.877 C 293.751 213.245, 297.284 216, 298.319 216 C 300.864 216, 307 209.710, 307 207.100 C 307 205.297, 306.399 204.999, 302.750 204.993 C 300.413 204.989, 295.350 204.709, 291.500 204.370 L 284.500 203.755 290.469 209.877 M 263.521 239.552 C 251.008 254.156, 240.935 266.223, 241.135 266.369 C 241.442 266.591, 292.661 288.836, 295.164 289.833 C 295.624 290.017, 296 274.734, 296 255.871 L 296 221.576 291.792 217.288 C 289.477 214.930, 287.288 213, 286.927 213 C 286.567 213, 276.034 224.948, 263.521 239.552 M 156.989 337.250 C 126.050 396.238, 99.420 446.975, 97.811 450 C 94.947 455.388, 94.939 455.439, 97.459 452.500 C 98.874 450.850, 130.377 408.336, 167.467 358.024 L 234.902 266.548 231.201 259.952 C 229.165 256.325, 224.575 248.106, 221 241.689 C 217.425 235.272, 214.217 230.016, 213.872 230.011 C 213.526 230.005, 187.929 278.262, 156.989 337.250 M 350 243.625 C 350 246.006, 349.722 246.194, 347.012 245.652 C 344.460 245.142, 343.937 245.402, 343.427 247.434 C 342.640 250.571, 344.391 253.658, 348.314 256.050 C 351.373 257.915, 355 258.650, 355 257.404 C 355 257.077, 354.045 255.467, 352.877 253.827 C 349.833 249.552, 351.971 247.689, 355.086 251.902 C 356.345 253.606, 357.741 255, 358.188 255 C 359.960 255, 358.990 246.257, 356.927 243.635 C 354.078 240.013, 350 240.007, 350 243.625 M 365.574 243.514 C 363.470 245.784, 362 249.944, 362 253.625 C 362 255.847, 364.259 255.207, 366.547 252.339 C 369.509 248.624, 371.765 250.117, 369.018 253.975 C 366.326 257.756, 366.407 259.318, 369.250 258.441 C 376.346 256.252, 379.367 253.016, 378.812 248.201 C 378.546 245.901, 378.091 245.548, 375.750 245.822 C 373.380 246.099, 373 245.788, 373 243.572 C 373 241.482, 372.522 241, 370.452 241 C 369.015 241, 366.889 242.096, 365.574 243.514 M 357.200 259.200 C 356.540 259.860, 356 261.345, 356 262.500 C 356 263.655, 356.540 265.140, 357.200 265.800 C 357.860 266.460, 359.345 267, 360.500 267 C 361.655 267, 363.140 266.460, 363.800 265.800 C 364.460 265.140, 365 263.655, 365 262.500 C 365 261.345, 364.460 259.860, 363.800 259.200 C 363.140 258.540, 361.655 258, 360.500 258 C 359.345 258, 357.860 258.540, 357.200 259.200 M 338.635 262.073 C 335.495 264.542, 335.251 266.628, 338 267.500 C 340.277 268.223, 340.583 270.008, 338.750 271.867 C 337.748 272.883, 337.885 273.419, 339.441 274.567 C 343.179 277.326, 349.188 275.354, 352.892 270.152 C 355.513 266.470, 354.776 265.815, 349.936 267.523 C 347.387 268.422, 345.837 268.545, 345.426 267.880 C 344.637 266.604, 344.721 266.533, 349.250 264.656 C 353.514 262.889, 354.028 261.509, 350.750 260.630 C 346.215 259.415, 341.264 260.004, 338.635 262.073 M 371.074 260.833 C 367.413 261.923, 367.568 263.442, 371.485 264.859 C 373.436 265.564, 375 266.816, 375 267.672 C 375 268.672, 374.440 268.999, 373.407 268.603 C 366.226 265.847, 364.695 267.350, 369.570 272.369 C 372.199 275.076, 373.924 276, 376.348 276 C 380.880 276, 382.287 274.368, 380.330 271.380 C 378.868 269.150, 378.922 268.980, 381.395 268.040 C 388.675 265.272, 378.956 258.486, 371.074 260.833 M 169.500 362.168 C 132.100 412.849, 101.090 455.009, 100.589 455.857 C 99.337 457.974, 93.329 462.952, 199.319 374.070 C 251.415 330.383, 293.693 294.295, 293.270 293.874 C 292.358 292.968, 239.423 269.995, 238.283 270.011 C 237.852 270.017, 206.900 311.488, 169.500 362.168 M 354.614 272.650 C 353.576 274.073, 352.518 277.098, 352.262 279.371 C 351.885 282.715, 352.213 283.883, 353.980 285.482 C 356.022 287.330, 356.227 287.346, 357.132 285.729 C 358.322 283.602, 360.586 283.479, 361.362 285.500 C 363.185 290.252, 368.630 283.272, 367.465 277.677 C 366.706 274.029, 364.382 270, 363.038 270 C 362.535 270, 361.816 272.044, 361.441 274.543 C 360.577 280.304, 358.372 279.972, 358.817 274.149 C 359.192 269.257, 357.522 268.661, 354.614 272.650 M 306 342 C 303.785 344.215, 303.262 350.752, 305.035 354.066 C 306.586 356.964, 307.832 356.411, 308.566 352.500 C 309.543 347.294, 312.220 347.769, 311.384 353 C 310.616 357.804, 311.625 358.045, 315.513 353.987 C 317.567 351.842, 318.400 349.968, 318.400 347.487 C 318.400 343.121, 316.728 341.151, 314.555 342.954 C 312.704 344.491, 310 343.646, 310 341.531 C 310 339.425, 308.386 339.614, 306 342 M 290.650 351 C 291.162 353.559, 290.946 354, 289.184 354 C 286.604 354, 285.934 355.032, 286.675 357.867 C 287.404 360.654, 291.845 363, 296.391 363 C 301.054 363, 301.708 361.532, 298.018 359.351 C 296.358 358.371, 295 356.991, 295 356.284 C 295 354.599, 295.620 354.662, 299.065 356.697 C 302.297 358.606, 303.482 358.094, 302.559 355.187 C 301.301 351.224, 297.270 348, 293.573 348 C 290.192 348, 290.074 348.121, 290.650 351 M 321 354.722 C 318.463 355.675, 314 359.084, 314 360.068 C 314 360.581, 315.837 361, 318.083 361 C 323.006 361, 323.081 363.329, 318.173 363.813 C 316.428 363.986, 315 364.537, 315 365.038 C 315 366.491, 320.623 369, 323.879 369 C 328.424 369, 331.958 364.688, 328.500 363.362 C 326.542 362.610, 326.589 360.586, 328.603 358.915 C 330.054 357.710, 329.996 357.415, 327.992 355.792 C 325.763 353.988, 323.767 353.682, 321 354.722 M 304.011 360.487 C 300.876 364.264, 306.736 370.124, 310.513 366.989 C 312.304 365.503, 312.458 361.858, 310.800 360.200 C 309.142 358.542, 305.497 358.696, 304.011 360.487 M 291.106 368.901 C 287.044 372.695, 286.784 377, 290.617 377 C 292.854 377, 293.165 377.355, 292.765 379.450 C 292.217 382.315, 293.972 383.344, 297.259 382.087 C 300.450 380.866, 302.644 378.078, 303.820 373.750 C 305 369.408, 303.541 368.639, 300.500 372 C 298.679 374.012, 296 374.711, 296 373.174 C 296 372.720, 297.125 371.292, 298.500 370 C 301.844 366.858, 301.652 366, 297.606 366 C 295.240 366, 293.270 366.879, 291.106 368.901 M 312.613 368.817 C 312.323 369.286, 312.592 371.319, 313.210 373.334 C 313.829 375.349, 314.065 377.269, 313.734 377.599 C 312.648 378.685, 311.166 377.031, 310.497 373.989 C 309.572 369.775, 307.305 370.236, 306.535 374.795 C 305.760 379.381, 307.079 383.242, 310.159 385.399 C 313.150 387.494, 314 387.419, 314 385.059 C 314 382.458, 315.519 381.672, 317.989 382.994 C 320.972 384.591, 322.528 380.199, 320.607 375.601 C 319.159 372.137, 313.520 367.350, 312.613 368.817" stroke="none" fill="black" fill-rule="evenodd"/>
</svg>